<svg width="240" height="218" viewBox="0 0 240 218" fill="none" xmlns="http://www.w3.org/2000/svg">
<g clip-path="url(#clip0_51544_5062)">
<path d="M205.122 99.3778C251.308 126.44 251.308 170.341 205.122 197.413C158.936 224.485 84.055 224.475 37.8688 197.413C-8.31746 170.351 -14.0594 126.45 32.1268 99.3778C78.313 72.3057 158.936 72.3057 205.122 99.3778Z" fill="#F2F4EE"/>
<path d="M62.2957 192.942C59.3674 192.992 56.4762 192.282 53.9032 190.883C50.8068 189.094 48.8928 186.603 48.2264 183.481C47.1942 178.645 49.459 173.292 51.7337 170.175L52.375 169.288C56.3483 163.811 58.5329 160.769 57.7562 157.662C56.8293 153.913 44.4936 154.419 31.5266 155.421L28.0193 155.692C19.6719 156.318 7.29612 154.85 6.11366 151.026C5.66773 149.568 6.77503 148.055 9.41554 146.516C19.5917 140.638 37.9099 130.033 37.9099 130.033L38.4109 130.9C38.4109 130.9 20.0928 141.505 9.91658 147.383C8.41345 148.25 6.70489 149.528 7.07065 150.716C7.89737 153.397 18.4343 155.391 27.9441 154.675L31.4514 154.409C44.9796 153.362 57.5959 152.835 58.7333 157.416C59.6201 160.999 57.3354 164.151 53.1867 169.87L52.5454 170.757C50.4109 173.708 48.2665 178.75 49.2285 183.285C49.8347 186.122 51.5834 188.387 54.4243 190.031C59.535 192.983 66.5947 192.065 69.7312 190.271C74.2406 187.69 92.2381 177.412 92.2381 177.412L92.7391 178.279C92.7391 178.279 74.7316 188.562 70.2322 191.138C68.2381 192.231 65.342 192.942 62.2957 192.942Z" fill="#DADADA"/>
<path d="M45.2209 135.02L16.7266 118.562L41.1474 104.459L69.6418 120.912L45.2209 135.02Z" fill="#DADADA"/>
<path d="M156.382 188.858L226.573 148.34C232.736 144.777 232.736 138.954 226.573 135.395L193.118 116.076C174.024 105.051 142.784 105.051 123.689 116.076L77.1619 142.943C53.197 156.784 59.2195 172.651 81.1001 185.33C102.981 198.009 132.417 202.695 156.382 188.858Z" fill="#D6DACF"/>
<path d="M34.4718 112.257C34.4718 112.257 33.7853 105.241 30.3933 99.7787C27.0012 94.3162 22.2814 90.8332 17.8271 90.4122C13.3728 89.9913 9.71018 94.0355 14.435 96.9272C19.1599 99.8188 27.5874 102.826 31.3202 113.42L34.4718 112.257Z" fill="#BCDF81"/>
<g opacity="0.15">
<path d="M34.4718 112.257C34.4718 112.257 33.7853 105.241 30.3933 99.7787C27.0012 94.3162 22.2814 90.8332 17.8271 90.4122C13.3728 89.9913 9.71018 94.0355 14.435 96.9272C19.1599 99.8188 27.5874 102.826 31.3202 113.42L34.4718 112.257Z" fill="#1A2509"/>
</g>
<path d="M33.1934 110.428H33.2385C33.2675 110.417 33.294 110.401 33.3166 110.379C33.3391 110.358 33.3572 110.332 33.3697 110.304C33.3823 110.275 33.3891 110.245 33.3898 110.214C33.3905 110.183 33.3851 110.152 33.3738 110.123C28.8644 98.4609 19.9758 93.4845 15.9124 92.4822C15.8821 92.4746 15.8507 92.4731 15.8198 92.4777C15.7889 92.4823 15.7593 92.4929 15.7325 92.509C15.7058 92.525 15.6824 92.5462 15.6639 92.5713C15.6453 92.5963 15.6318 92.6248 15.6243 92.6551C15.6167 92.6854 15.6152 92.7168 15.6198 92.7477C15.6244 92.7786 15.635 92.8082 15.651 92.835C15.6671 92.8617 15.6883 92.8851 15.7133 92.9037C15.7384 92.9222 15.7669 92.9357 15.7971 92.9433C19.7754 93.9456 28.4786 98.8167 32.9328 110.293C32.9538 110.342 32.9912 110.383 33.0388 110.408C33.0863 110.432 33.141 110.44 33.1934 110.428Z" fill="white"/>
<path d="M11.2128 107.923C11.5685 108.795 12.4955 109.266 13.3573 109.637C14.219 110.007 15.156 110.413 15.6069 111.24C16.5088 112.904 14.8904 115.164 15.8675 116.788C16.0968 117.114 16.3901 117.39 16.7295 117.6C17.0688 117.809 17.4472 117.947 17.8416 118.006C18.4879 118.141 19.1493 118.161 19.8057 118.231C20.1187 118.232 20.4315 118.216 20.7426 118.181C21.6598 118.004 22.6095 118.131 23.4483 118.542C24.7309 119.309 25.0867 120.967 25.8483 122.255C26.3173 123.017 26.9459 123.667 27.6907 124.162C28.4355 124.657 29.2787 124.985 30.1623 125.122C31.6353 125.358 33.855 125.082 34.2558 124.44C34.5564 123.939 33.7547 122.436 33.7297 121.855C33.721 120.377 33.5734 118.904 33.2888 117.454C33.1294 116.798 33.0519 116.125 33.0583 115.45C33.0583 114.693 33.1034 113.946 33.1184 113.185C33.1335 112.423 33.3439 111.731 33.0683 110.899C32.7721 110.126 32.3617 109.401 31.8508 108.749C31.3748 108.078 30.8938 107.416 30.4028 106.745C29.8605 105.941 29.2172 105.21 28.4888 104.57C27.8352 104.038 27.0798 103.646 26.269 103.416C25.4582 103.187 24.6092 103.126 23.774 103.237C22.3911 103.432 21.0282 104.169 19.6153 104.064C18.2023 103.958 16.8996 103.563 15.4917 103.623C14.7467 103.624 14.0117 103.795 13.3424 104.122C12.6731 104.449 12.0871 104.925 11.6286 105.512C11.3658 105.848 11.1903 106.244 11.1177 106.665C11.0452 107.086 11.0778 107.518 11.2128 107.923Z" fill="#BCDF81"/>
<path d="M33.1376 120.747C33.165 120.741 33.1909 120.73 33.2137 120.713C33.2366 120.697 33.2559 120.676 33.2704 120.652C33.285 120.629 33.2945 120.602 33.2983 120.574C33.3022 120.546 33.3004 120.518 33.2929 120.491C30.2115 107.561 16.7334 105.351 13.5668 105.497C13.5106 105.499 13.4576 105.524 13.4192 105.565C13.3808 105.606 13.36 105.661 13.3614 105.717C13.3627 105.745 13.3694 105.772 13.3812 105.797C13.393 105.822 13.4096 105.845 13.43 105.863C13.4505 105.882 13.4745 105.896 13.5005 105.906C13.5266 105.915 13.5542 105.919 13.5819 105.918C16.6833 105.777 29.8658 107.922 32.8821 120.591C32.8973 120.645 32.9321 120.69 32.9795 120.719C33.0268 120.748 33.0833 120.758 33.1376 120.747Z" fill="white"/>
<path d="M18.2822 113.845C18.3244 113.838 18.3631 113.817 18.3924 113.785C19.6714 112.737 21.1652 111.984 22.7679 111.578C24.3707 111.172 26.0431 111.123 27.6668 111.435C27.6941 111.44 27.7221 111.44 27.7493 111.434C27.7764 111.428 27.8022 111.417 27.825 111.401C27.8478 111.386 27.8673 111.365 27.8823 111.342C27.8972 111.319 27.9074 111.292 27.9123 111.265C27.9211 111.21 27.9083 111.154 27.8766 111.108C27.8448 111.062 27.7965 111.031 27.7419 111.02C26.0527 110.695 24.3127 110.748 22.6462 111.174C20.9798 111.6 19.428 112.389 18.1018 113.485C18.082 113.504 18.0662 113.527 18.0554 113.552C18.0446 113.578 18.0391 113.605 18.0391 113.632C18.0391 113.66 18.0446 113.687 18.0554 113.713C18.0662 113.738 18.082 113.761 18.1018 113.78C18.125 113.804 18.1533 113.822 18.1846 113.834C18.2158 113.845 18.2492 113.849 18.2822 113.845Z" fill="white"/>
<path d="M44.4575 59.8322L40.384 48.0802L32.6328 43.605L32.6378 53.0065V125.874L44.4575 132.699V59.8322Z" fill="#5C5C5C"/>
<g opacity="0.5">
<path d="M44.4575 59.8322L40.384 48.0802L32.6328 43.605L32.6378 53.0065V125.874L44.4575 132.699V59.8322Z" fill="#1A2509"/>
</g>
<path d="M62.7753 35.1504L66.8438 46.9023L44.4571 59.832L40.3887 48.08L62.7753 35.1504Z" fill="#5C5C5C"/>
<path opacity="0.2" d="M62.7753 35.1504L66.8438 46.9023L44.4571 59.832L40.3887 48.08L62.7753 35.1504Z" fill="#1A2509"/>
<path d="M62.7765 35.1506L55.0253 30.6753L32.6387 43.605L40.3898 48.0802L62.7765 35.1506Z" fill="#5C5C5C"/>
<path opacity="0.1" d="M62.7765 35.1506L55.0253 30.6753L32.6387 43.605L40.3898 48.0802L62.7765 35.1506Z" fill="#1A2509"/>
<path d="M44.4581 59.832C44.5634 65.906 44.6085 71.9749 44.6485 78.0488L44.7087 96.2656L44.6485 114.482L44.5934 123.588L44.4732 132.699L44.3479 123.588L44.2778 114.482L44.2227 96.2656L44.2828 78.0488C44.3078 71.9749 44.3529 65.906 44.4581 59.832Z" fill="white"/>
<path d="M66.8433 46.9023C65.1247 48.0149 63.3761 49.0823 61.6274 50.1398C59.8788 51.1972 58.1201 52.2195 56.3414 53.2569C54.5627 54.2943 52.789 55.2916 50.9953 56.2638L48.3047 57.7372C47.3978 58.2133 46.5009 58.7044 45.584 59.1655C46.4458 58.6042 47.3176 58.073 48.1844 57.5217L50.8049 55.9281C52.5535 54.8706 54.3122 53.8483 56.0909 52.8109C57.8696 51.7735 59.6433 50.7762 61.432 49.804C63.2207 48.8318 65.0195 47.8345 66.8433 46.9023Z" fill="white"/>
<path d="M62.6312 35.2256C60.9126 36.3381 59.164 37.4006 57.4154 38.458C55.6667 39.5154 53.9081 40.5378 52.1294 41.5802C50.3506 42.6226 48.577 43.5848 46.7882 44.5871L44.0926 46.0705C43.1857 46.5465 42.2889 47.0377 41.377 47.4987C42.2337 46.9374 43.1056 46.4062 43.9724 45.86L46.5928 44.2613C48.3465 43.2039 50.1001 42.1866 51.8788 41.1442C53.6575 40.1018 55.4312 39.1396 57.225 38.1373C59.0187 37.135 60.8275 36.1577 62.6312 35.2256Z" fill="white"/>
<path d="M44.457 59.832L66.8437 46.9023L66.8487 119.774L44.457 132.699V59.832Z" fill="#5C5C5C"/>
<path opacity="0.3" d="M44.457 59.832L66.8437 46.9023L66.8487 119.774L44.457 132.699V59.832Z" fill="#1A2509"/>
<path d="M46.4609 60.9898L64.8392 50.3755L64.8442 118.617L46.4609 129.231V60.9898Z" fill="#5C5C5C"/>
<path d="M62.7751 53.9536V82.1633L48.5254 90.3872V62.1825L61.758 54.54L62.7751 53.9536Z" fill="#1A2509"/>
<path d="M62.7749 53.9536L61.7578 54.54L61.7628 81.577L62.7749 82.1633V53.9536Z" fill="#1A2509"/>
<path d="M61.763 81.577L48.5254 89.2146V62.1826L61.758 54.54L61.763 81.577Z" fill="#A2D7EA"/>
<path d="M56.6729 60.4287L52.875 67.4799L55.5055 68.1514L54.1978 74.07L57.675 66.658L55.0195 66.0817L56.6729 60.4287Z" fill="#EDEDED"/>
<path opacity="0.15" d="M51.1056 78.3947L59.6885 73.4383C59.9891 73.2629 60.2346 73.3882 60.2346 73.7139C60.2207 73.8959 60.164 74.0721 60.0691 74.228C59.9742 74.3839 59.8438 74.5151 59.6885 74.611L51.1056 79.5724C50.81 79.7428 50.5645 79.6225 50.5645 79.2968C50.5774 79.1144 50.6332 78.9377 50.7272 78.781C50.8212 78.6243 50.9508 78.4919 51.1056 78.3947Z" fill="white"/>
<path opacity="0.15" d="M51.1056 80.75L59.6885 75.7886C59.9891 75.6182 60.2346 75.7385 60.2346 76.0643C60.2211 76.2464 60.1646 76.4227 60.0696 76.5786C59.9747 76.7346 59.844 76.8658 59.6885 76.9613L51.1056 81.9227C50.81 82.0931 50.5645 81.9728 50.5645 81.6471C50.5774 81.4654 50.6332 81.2894 50.7272 81.1335C50.8213 80.9776 50.9509 80.8462 51.1056 80.75Z" fill="white"/>
<path opacity="0.15" d="M51.1056 83.1004L59.6885 78.144C59.9891 77.9686 60.2346 78.0889 60.2346 78.4147C60.2207 78.5973 60.164 78.7742 60.0691 78.9309C59.9743 79.0876 59.8439 79.2198 59.6885 79.3167L51.1056 84.2731C50.81 84.4485 50.5645 84.3232 50.5645 84.0025C50.577 83.8201 50.6326 83.6432 50.7267 83.4864C50.8207 83.3296 50.9506 83.1974 51.1056 83.1004Z" fill="white"/>
<path d="M34.041 72.6667C34.041 71.3988 34.492 70.5168 35.1984 70.161C35.2936 70.1109 35.6995 69.8904 35.7746 69.8302C36.4009 69.4694 37.2477 69.5095 38.1746 70.0457C40.1087 71.1633 41.6819 73.9998 41.6819 76.3803V81.918C41.6819 83.1157 41.2861 83.9627 40.6448 84.3736C40.5145 84.4588 40.0385 84.7244 39.9283 84.7845C39.307 85.1353 38.4702 85.0902 37.5533 84.559C35.6143 83.4415 34.046 80.6049 34.046 78.2245L34.041 72.6667Z" fill="#5C5C5C"/>
<path d="M37.5483 70.3512C35.6093 69.2337 34.041 70.261 34.041 72.6415V78.1792C34.041 80.5597 35.6093 83.3962 37.5483 84.5137C39.4874 85.6313 41.0556 84.6039 41.0556 82.2235V76.6757C41.0506 74.3053 39.4824 71.4688 37.5483 70.3512Z" fill="#5C5C5C"/>
<path opacity="0.7" d="M37.5483 70.3512C35.6093 69.2337 34.041 70.261 34.041 72.6415V78.1792C34.041 80.5597 35.6093 83.3962 37.5483 84.5137C39.4874 85.6313 41.0556 84.6039 41.0556 82.2235V76.6757C41.0506 74.3053 39.4824 71.4688 37.5483 70.3512Z" fill="white"/>
<path opacity="0.5" d="M39.9824 84.6942C40.1428 84.599 40.5286 84.3935 40.6338 84.3184C41.2801 83.9124 41.6759 83.0555 41.6759 81.8627V76.3351C41.6449 75.1802 41.3519 74.0475 40.8192 73.0225L40.1979 73.3783C40.7291 74.4018 41.0204 75.533 41.0496 76.6859V82.1985C41.0496 83.4363 40.6388 84.2983 39.9824 84.6942Z" fill="white"/>
<path opacity="0.7" d="M38.8262 84.9497C38.9741 84.9698 39.1241 84.9698 39.2721 84.9497C39.1238 84.9647 38.9744 84.9647 38.8262 84.9497Z" fill="white"/>
<path opacity="0.9" d="M35.3125 70.0505C35.6812 69.9192 36.0759 69.878 36.4638 69.9303C36.8516 69.9826 37.2214 70.1269 37.5421 70.3511C38.6924 71.0835 39.6128 72.1255 40.1977 73.3573L40.819 73.0016C40.2415 71.768 39.3237 70.725 38.1735 69.9953C37.2465 69.4592 36.3998 69.4191 35.7735 69.7799L35.3125 70.0505Z" fill="white"/>
<path d="M37.5486 73.6687C36.5816 73.1076 35.7949 73.5635 35.7949 74.6708C35.827 75.2794 36.0026 75.8717 36.3074 76.3994C36.6122 76.9271 37.0375 77.3752 37.5486 77.7072C38.5156 78.2633 39.2972 77.8124 39.2972 76.7051C39.2657 76.097 39.0908 75.5049 38.7869 74.9772C38.4831 74.4496 38.0587 74.0012 37.5486 73.6687Z" fill="#1A2509"/>
<path d="M36.2149 74.4504C36.1875 74.0866 36.3045 73.7266 36.5405 73.4483C36.8897 73.3927 37.2471 73.4695 37.5426 73.6638C38.0488 73.9933 38.4707 74.4369 38.7744 74.959C39.0781 75.4811 39.2551 76.0671 39.2913 76.6701C39.3181 77.0338 39.2012 77.3936 38.9656 77.6721C38.617 77.7298 38.2595 77.6547 37.9635 77.4617C37.4566 77.1317 37.0344 76.6873 36.7306 76.1643C36.4269 75.6412 36.2502 75.0542 36.2149 74.4504Z" fill="#5C5C5C"/>
<path d="M98.5897 99.5935L98.1387 101.473C97.1016 103.417 94.8068 105.873 93.9851 105.667C93.2485 105.487 92.7976 104.415 92.5671 103.092C92.4569 102.459 92.3932 101.819 92.3767 101.177C92.3066 99.0924 93.2335 94.2413 96.1195 92.9483C96.4095 92.8248 96.731 92.7956 97.0385 92.8648C97.346 92.9341 97.624 93.0983 97.8331 93.3342C98.2188 93.7195 98.5059 94.1923 98.6698 94.7123C99.1508 96.1556 98.6548 99.5184 98.5897 99.5935Z" fill="#A9A9A9"/>
<path opacity="0.3" d="M98.5897 99.5935C98.4393 100.37 98.1387 101.473 98.1387 101.473C97.1016 103.417 94.8068 105.873 93.9851 105.667C93.2485 105.487 92.7976 104.415 92.5671 103.092C92.4569 102.459 92.3932 101.819 92.3767 101.177C92.3066 99.0924 93.2335 94.2413 96.1195 92.9483C96.4095 92.8248 96.731 92.7956 97.0385 92.8648C97.346 92.9341 97.624 93.0983 97.8331 93.3342C98.2188 93.7195 98.5059 94.1923 98.6698 94.7123C99.1508 96.1556 98.6548 99.5184 98.5897 99.5935Z" fill="#1A2509"/>
<path d="M98.1387 101.473C97.1016 103.417 94.8068 105.873 93.9851 105.667C93.2485 105.487 92.7976 104.415 92.5671 103.092C92.4569 102.459 92.3932 101.819 92.3767 101.177C92.3066 99.0924 93.2335 94.2413 96.1195 92.9483C96.4095 92.8248 96.731 92.7956 97.0385 92.8648C97.346 92.9341 97.624 93.0983 97.8331 93.3342L97.4373 94.2262C95.4331 95.0932 94.8769 98.2104 95.0623 100.581C95.2477 102.951 96.9813 102.696 98.1387 101.473Z" fill="#A9A9A9"/>
<path opacity="0.35" d="M98.1387 101.473C97.1016 103.417 94.8068 105.873 93.9851 105.667C93.2485 105.487 92.7976 104.415 92.5671 103.092C92.4569 102.459 92.3932 101.819 92.3767 101.177C92.3066 99.0924 93.2335 94.2413 96.1195 92.9483C96.4095 92.8248 96.731 92.7956 97.0385 92.8648C97.346 92.9341 97.624 93.0983 97.8331 93.3342L97.4373 94.2262C95.4331 95.0932 94.8769 98.2104 95.0623 100.581C95.2477 102.951 96.9813 102.696 98.1387 101.473Z" fill="#1A2509"/>
<path d="M98.6659 94.7176C97.9344 93.9458 96.1206 93.9057 94.5974 96.0055C93.0743 98.1053 92.5933 101.699 92.5682 103.097C92.4585 102.462 92.3932 101.821 92.3728 101.177C92.3027 99.0976 93.2296 94.2415 96.1156 92.9535C97.3231 92.3973 98.3202 93.6301 98.6659 94.7176Z" fill="#1A2509"/>
<path d="M194.094 93.6601L165.344 77.7987C164.132 76.9464 162.773 76.3247 161.336 75.9645C162.579 68.9134 152.317 60.7496 142.797 63.4659C142.797 63.4659 121.253 72.4866 115.942 78.1746C108.005 86.6941 98.405 96.0757 95.539 103.407C95.038 104.736 143.494 152.986 143.494 152.986L163.541 164.578L215.404 105.412C211.305 97.1581 205.989 90.6683 194.094 93.6601ZM142.752 66.4978C146.736 65.4354 149.537 65.4053 153.324 68.9084C155.88 71.2788 156.716 78.34 154.477 79.5127L138.318 87.9821H138.293L138.118 88.0723C136.675 88.829 136.855 87.2404 137.116 85.8723C137.727 82.4093 139.02 75.1376 139.741 71.0432C140.007 68.9033 140.939 66.9789 142.752 66.4978ZM98.9411 104.239C100.66 98.4461 111.773 87.2003 114.293 84.87C120.601 79.0717 125.817 75.1978 127.526 74.2606C131.79 71.9253 133.999 70.7927 135.487 70.061C137.341 69.1489 137.872 69.5849 137.827 70.1161C137.802 70.3767 137.762 70.6975 137.697 71.0733L135.693 81.9082C135.357 83.4818 134.926 83.8176 132.306 85.2458C122.6 90.5179 99.0062 104.209 98.9411 104.239Z" fill="#A9A9A9"/>
<path opacity="0.2" d="M194.094 93.6601L165.344 77.7987C164.132 76.9464 162.773 76.3247 161.336 75.9645C162.579 68.9134 152.317 60.7496 142.797 63.4659C142.797 63.4659 122.801 72.4164 117.48 78.1295C109.543 86.649 99.397 96.9026 96.541 104.234C96.04 105.562 143.494 152.986 143.494 152.986L163.541 164.578L215.404 105.412C211.305 97.1581 205.989 90.6683 194.094 93.6601ZM142.752 66.4978C146.736 65.4354 149.536 65.4053 153.324 68.9084C155.88 71.2788 156.716 78.34 154.477 79.5127L138.318 87.9821H138.293L138.118 88.0723C136.675 88.829 136.855 87.2404 137.116 85.8723C137.727 82.4093 139.02 75.1376 139.741 71.0432C140.007 68.9033 140.939 66.9789 142.752 66.4978ZM98.9411 104.239C100.66 98.4461 111.773 87.2003 114.293 84.87C120.601 79.0717 125.817 75.1978 127.526 74.2606C131.789 71.9253 133.999 70.7927 135.487 70.061C137.341 69.1489 137.872 69.5849 137.827 70.1161C137.802 70.3767 137.762 70.6975 137.697 71.0733L135.693 81.9082C135.357 83.4818 134.926 83.8176 132.306 85.2458C122.6 90.5179 99.0062 104.209 98.9411 104.239Z" fill="#1A2509"/>
<path d="M158.098 119.168L152.226 119.053L143.297 113.931C142.464 113.512 141.551 113.273 140.619 113.228C139.687 113.183 138.756 113.334 137.886 113.671L127.049 118.557L119.623 118.411V122.746C119.623 123.248 119.969 123.749 120.67 124.14L140.121 135.37C140.91 135.779 141.797 135.958 142.682 135.888C143.568 135.818 144.416 135.501 145.131 134.974L157.211 125.167C157.475 124.974 157.692 124.725 157.845 124.437C157.999 124.149 158.085 123.829 158.098 123.503V119.168Z" fill="#1A2509"/>
<path d="M120.665 119.805L140.116 131.041C140.905 131.448 141.792 131.626 142.677 131.556C143.562 131.486 144.41 131.171 145.126 130.645L157.206 120.832C158.509 119.775 158.384 118.236 156.926 117.404L143.297 109.591C142.463 109.174 141.551 108.935 140.619 108.89C139.687 108.845 138.756 108.995 137.886 109.331L120.815 117.034C119.272 117.725 119.212 118.968 120.665 119.805Z" fill="#5C5C5C"/>
<path d="M158.103 119.173V123.498C158.091 123.824 158.005 124.143 157.852 124.43C157.698 124.718 157.481 124.966 157.217 125.157L145.136 134.965C144.452 135.487 143.63 135.8 142.771 135.867V131.532C143.63 131.465 144.452 131.152 145.136 130.63L157.217 120.817C157.477 120.626 157.692 120.38 157.845 120.095C157.999 119.811 158.087 119.496 158.103 119.173Z" fill="#1A2509"/>
<path d="M159.977 117.885C160.007 118.079 159.984 118.277 159.911 118.458C159.838 118.64 159.717 118.799 159.562 118.918L154.606 121.774C154.768 121.662 154.895 121.505 154.97 121.323C155.046 121.141 155.067 120.941 155.032 120.747L153.955 96.5413C153.901 95.9895 153.723 95.4569 153.436 94.9826C153.149 94.5082 152.76 94.1041 152.296 93.8L140.622 87.0646C140.444 86.9417 140.237 86.8677 140.022 86.8501C139.806 86.8325 139.59 86.8719 139.395 86.9643L144.31 84.1278C144.508 84.0269 144.73 83.9811 144.952 83.9952C145.174 84.0093 145.388 84.0828 145.572 84.208L157.237 90.9435C157.702 91.2465 158.093 91.6502 158.38 92.1247C158.668 92.5992 158.846 93.1324 158.9 93.6848L159.977 117.885Z" fill="#1A2509"/>
<path d="M140.627 87.0545L152.316 93.795C152.779 94.0986 153.168 94.5018 153.455 94.9753C153.742 95.4487 153.919 95.9803 153.974 96.5313L155.052 120.742C155.097 121.744 154.425 122.16 153.548 121.654L136.939 112.062C136.49 111.774 136.13 111.367 135.898 110.887C135.666 110.406 135.572 109.871 135.626 109.341L138.788 87.9466C138.796 87.7367 138.86 87.5329 138.975 87.357C139.09 87.1811 139.25 87.0397 139.439 86.9481C139.628 86.8564 139.838 86.8179 140.048 86.8367C140.257 86.8554 140.457 86.9307 140.627 87.0545Z" fill="#1A2509"/>
<path d="M158.389 92.1263L153.444 94.9829C153.164 94.4996 152.77 94.0919 152.296 93.7951L140.622 87.0597C140.444 86.9368 140.237 86.8628 140.022 86.8452C139.806 86.8276 139.59 86.867 139.395 86.9595L144.31 84.123C144.508 84.022 144.73 83.9762 144.952 83.9903C145.174 84.0044 145.388 84.0779 145.572 84.2032L157.237 90.9386C157.709 91.238 158.104 91.645 158.389 92.1263Z" fill="#5C5C5C"/>
<path d="M156.349 88.6084V82.5946C156.349 78.2597 153.578 73.148 150.166 71.1784C148.603 70.2714 147.16 70.1762 146.088 70.7876L142.295 72.9525L143.968 76.1498V81.467C143.998 82.0157 144.157 82.5496 144.431 83.0257C144.705 83.5019 145.087 83.907 145.547 84.2083L149.31 86.3783L152.14 91.7957L155.863 89.6308C156.029 89.5202 156.162 89.3668 156.247 89.1868C156.333 89.0067 156.368 88.8069 156.349 88.6084Z" fill="#1A2509"/>
<path d="M150.166 79.743L155.011 76.9466C153.879 74.4759 152.13 72.2959 150.166 71.1633C148.603 70.2562 147.16 70.161 146.088 70.7724L142.295 72.9524L143.968 76.1497V77.1771L150.166 79.743Z" fill="#5C5C5C"/>
<path d="M152.642 90.7631V84.7493C152.642 80.4144 149.871 75.3027 146.459 73.3281C143.047 71.3536 140.291 73.268 140.291 77.6029V83.6167C140.321 84.1654 140.48 84.6993 140.754 85.1754C141.028 85.6515 141.41 86.0566 141.869 86.358L151.068 91.6652C151.93 92.1814 152.642 91.7754 152.642 90.7631Z" fill="#1A2509"/>
<path d="M140.976 92.2115C139.539 97.5529 138.851 103.068 138.932 108.599C138.971 109.166 139.124 109.718 139.382 110.224C139.641 110.73 139.999 111.178 140.435 111.541C143.319 113.678 146.439 115.476 149.735 116.898C149.922 117.004 150.135 117.056 150.35 117.051C150.565 117.045 150.775 116.981 150.956 116.866C151.138 116.751 151.286 116.589 151.383 116.397C151.48 116.205 151.523 115.99 151.508 115.776C151.839 109.857 151.857 103.925 151.564 98.0048C151.424 96.8606 150.854 95.8123 149.97 95.0731C147.855 93.5249 145.578 92.2093 143.181 91.1491C142.969 91.0497 142.737 90.9987 142.503 91C142.269 91.0013 142.037 91.0547 141.826 91.1565C141.615 91.2582 141.43 91.4057 141.282 91.5882C141.135 91.7707 141.031 91.9836 140.976 92.2115Z" fill="#A9A9A9"/>
<path opacity="0.15" d="M151.363 116.307C151.44 116.131 151.484 115.942 151.494 115.751C151.824 109.832 151.842 103.9 151.549 97.98C151.494 97.4151 151.323 96.8675 151.048 96.3713C150.401 95.4492 150.171 103.202 150.176 107.928C150.181 112.654 150.241 117.324 151.013 116.783L151.103 116.708C151.202 116.583 151.29 116.449 151.363 116.307Z" fill="#1A2509"/>
<g opacity="0.15">
<path d="M140.016 108.173L140.391 108.414C140.627 108.574 140.968 108.785 141.368 109.05C142.175 109.552 143.252 110.253 144.375 110.885C145.497 111.516 146.604 112.107 147.466 112.538C147.897 112.749 148.253 112.944 148.508 113.039C148.764 113.135 148.904 113.245 148.904 113.245L148.468 113.155C148.193 113.085 147.797 112.994 147.336 112.839C146.807 112.67 146.287 112.474 145.778 112.253C145.502 112.122 145.206 112.002 144.926 111.852C144.645 111.701 144.355 111.546 144.069 111.391C143.508 111.06 142.962 110.714 142.466 110.353C142.017 110.027 141.585 109.678 141.173 109.306C140.807 108.985 140.527 108.685 140.331 108.484C140.136 108.284 140.016 108.173 140.016 108.173Z" fill="#1A2509"/>
<path d="M140.016 105.116C140.016 105.116 140.156 105.196 140.391 105.352C140.627 105.507 140.968 105.728 141.368 105.988C142.175 106.489 143.252 107.196 144.375 107.822C145.497 108.449 146.604 109.045 147.466 109.476C147.897 109.692 148.253 109.882 148.508 110.002L148.904 110.203C148.904 110.203 148.744 110.203 148.468 110.113C148.193 110.022 147.797 109.952 147.336 109.802C146.875 109.652 146.334 109.451 145.778 109.211C145.502 109.08 145.206 108.96 144.926 108.81C144.645 108.659 144.355 108.509 144.069 108.354C143.508 108.023 142.962 107.672 142.466 107.311C142.017 106.985 141.585 106.636 141.173 106.264C140.807 105.943 140.527 105.642 140.331 105.442C140.136 105.241 140.016 105.116 140.016 105.116Z" fill="#1A2509"/>
<path d="M140.646 102.585L140.997 102.801C141.213 102.951 141.533 103.137 141.904 103.382C142.646 103.883 143.643 104.474 144.67 105.026C145.697 105.577 146.759 106.088 147.561 106.474L148.523 106.975C148.758 107.09 148.889 107.165 148.889 107.165L148.483 107.085C148.232 107.025 147.862 106.95 147.436 106.824C147.01 106.699 146.504 106.534 145.983 106.323C145.722 106.213 145.451 106.108 145.186 105.978C144.92 105.847 144.65 105.717 144.384 105.577C144.119 105.436 143.858 105.281 143.608 105.121C143.357 104.96 143.107 104.795 142.886 104.62C142.469 104.321 142.069 103.998 141.689 103.653C141.358 103.352 141.102 103.071 140.922 102.886C140.742 102.701 140.646 102.585 140.646 102.585Z" fill="#1A2509"/>
<path d="M140.902 99.729C140.902 99.729 141.028 99.7991 141.243 99.9394C141.458 100.08 141.744 100.26 142.12 100.496C142.841 100.957 143.803 101.548 144.8 102.069C145.798 102.59 146.805 103.071 147.601 103.437L148.538 103.898L148.889 104.083C148.889 104.083 148.744 104.083 148.498 104.013C148.253 103.943 147.897 103.883 147.496 103.767C147.095 103.652 146.594 103.497 146.088 103.306C145.838 103.201 145.587 103.111 145.312 102.986C145.036 102.861 144.81 102.735 144.53 102.605C144.249 102.475 144.029 102.324 143.778 102.174C143.528 102.024 143.302 101.858 143.077 101.708C142.674 101.419 142.289 101.106 141.924 100.771C141.599 100.481 141.353 100.21 141.183 100.03C141.013 99.8493 140.902 99.729 140.902 99.729Z" fill="#1A2509"/>
<path d="M141.338 97.0078L141.659 97.1982L142.485 97.6992C143.303 98.2294 144.147 98.7161 145.016 99.1573C145.958 99.6333 146.945 100.049 147.676 100.395C148.408 100.741 148.889 101.006 148.889 101.006C148.44 100.936 147.995 100.842 147.556 100.726C146.584 100.483 145.64 100.139 144.74 99.6984C144.499 99.5681 144.239 99.4429 144.023 99.3026C143.808 99.1623 143.573 99.007 143.362 98.8667C142.981 98.5933 142.618 98.2954 142.275 97.9748C141.939 97.6756 141.626 97.3524 141.338 97.0078Z" fill="#1A2509"/>
<path d="M142.35 94.3867C142.35 94.3867 142.77 94.6222 143.352 94.998C143.933 95.3738 144.735 95.8397 145.551 96.2656C146.368 96.6915 147.205 97.0873 147.836 97.403C148.467 97.7187 148.878 97.9642 148.878 97.9642C148.484 97.9139 148.094 97.8369 147.711 97.7337C146.866 97.5126 146.048 97.2001 145.271 96.8018C145.06 96.6865 144.85 96.5713 144.649 96.446C144.449 96.3207 144.259 96.1905 144.073 96.0602C143.742 95.8195 143.429 95.5549 143.136 95.2686C142.851 94.9959 142.588 94.701 142.35 94.3867Z" fill="#1A2509"/>
</g>
<path d="M135.997 114.207C132.93 114.758 129.894 116.322 126.883 118.582C126.697 118.705 126.544 118.872 126.438 119.068C126.333 119.265 126.277 119.484 126.277 119.707C126.277 119.93 126.333 120.15 126.438 120.346C126.544 120.542 126.697 120.709 126.883 120.832C130.522 123.507 134.452 125.763 138.597 127.558C139.129 127.762 139.695 127.859 140.265 127.843C140.834 127.828 141.394 127.7 141.914 127.467C144.489 126.156 146.853 124.467 148.929 122.456C149.095 122.294 149.222 122.097 149.303 121.88C149.383 121.662 149.414 121.429 149.392 121.198C149.371 120.967 149.299 120.744 149.18 120.544C149.062 120.345 148.901 120.175 148.708 120.045C145.847 117.921 142.764 116.113 139.514 114.653C138.395 114.22 137.188 114.067 135.997 114.207Z" fill="#A9A9A9"/>
<g opacity="0.2">
<path d="M128.521 119.714C128.521 119.714 128.717 119.764 129.023 119.865C129.328 119.965 129.824 120.115 130.38 120.326C131.735 120.843 133.049 121.46 134.314 122.17C135.574 122.886 136.776 123.702 137.906 124.611C138.823 125.367 139.374 125.934 139.374 125.934L137.701 124.896C136.699 124.275 135.371 123.468 134.013 122.701C132.655 121.934 131.277 121.198 130.235 120.646L128.977 119.975L128.521 119.714Z" fill="#1A2509"/>
<path d="M131.447 118.031L131.948 118.181C132.274 118.286 132.75 118.432 133.301 118.647C134.657 119.16 135.972 119.775 137.234 120.486C138.497 121.2 139.698 122.016 140.827 122.927C141.744 123.684 142.295 124.25 142.295 124.25L140.626 123.213C139.624 122.591 138.292 121.784 136.934 121.018C135.576 120.251 134.198 119.514 133.161 118.963L131.923 118.271C131.618 118.131 131.447 118.031 131.447 118.031Z" fill="#1A2509"/>
<path d="M133.957 116.603L134.458 116.753C134.784 116.863 135.26 117.003 135.816 117.219C137.17 117.732 138.484 118.349 139.744 119.063C141.009 119.775 142.213 120.591 143.342 121.504C143.853 121.918 144.343 122.358 144.81 122.822C144.81 122.822 144.138 122.411 143.136 121.784C142.134 121.158 140.806 120.356 139.443 119.589C138.081 118.823 136.713 118.086 135.671 117.535L134.413 116.863C134.127 116.703 133.957 116.603 133.957 116.603Z" fill="#1A2509"/>
<path d="M136.699 115.43L137.2 115.565C137.501 115.66 137.937 115.791 138.443 115.981C139.69 116.448 140.9 117.011 142.06 117.665C143.219 118.321 144.32 119.073 145.352 119.915C146.189 120.612 146.695 121.138 146.695 121.138C146.695 121.138 146.535 121.053 146.264 120.882L145.152 120.201C144.23 119.634 143.007 118.898 141.76 118.196C140.512 117.494 139.255 116.813 138.303 116.302L137.155 115.675C136.855 115.525 136.699 115.43 136.699 115.43Z" fill="#1A2509"/>
</g>
<path d="M184.916 134.894L179.043 134.779L170.105 129.657C169.271 129.239 168.359 129 167.427 128.956C166.495 128.911 165.564 129.061 164.694 129.397L153.861 134.308L146.436 134.163V138.498C146.436 138.999 146.781 139.5 147.488 139.891L166.938 151.127C167.727 151.535 168.615 151.714 169.501 151.643C170.387 151.572 171.235 151.255 171.949 150.726L184.029 140.918C184.293 140.726 184.51 140.478 184.664 140.191C184.819 139.903 184.906 139.585 184.921 139.259L184.916 134.894Z" fill="#1A2509"/>
<path d="M147.487 135.536L166.938 146.767C167.726 147.176 168.614 147.356 169.499 147.286C170.385 147.216 171.233 146.899 171.948 146.371L184.028 136.564C185.331 135.501 185.211 133.968 183.753 133.131L170.104 125.323C169.27 124.904 168.358 124.664 167.426 124.619C166.494 124.574 165.563 124.725 164.693 125.062L147.622 132.76C146.094 133.451 146.029 134.694 147.487 135.536Z" fill="#5C5C5C"/>
<path d="M184.921 134.899V139.229C184.909 139.555 184.822 139.874 184.669 140.161C184.515 140.449 184.298 140.697 184.034 140.888L171.954 150.696C171.271 151.219 170.451 151.533 169.594 151.598V147.263C170.451 147.198 171.271 146.884 171.954 146.361L184.034 136.553C184.295 136.361 184.51 136.112 184.663 135.826C184.817 135.54 184.905 135.224 184.921 134.899Z" fill="#1A2509"/>
<path d="M186.794 133.617C186.824 133.809 186.801 134.007 186.728 134.188C186.655 134.369 186.534 134.526 186.378 134.644L181.428 137.506C181.59 137.392 181.716 137.234 181.791 137.052C181.867 136.869 181.888 136.668 181.854 136.473L180.776 112.258C180.721 111.705 180.543 111.173 180.255 110.698C179.967 110.224 179.577 109.82 179.113 109.516L167.444 102.786C167.264 102.664 167.056 102.591 166.84 102.574C166.624 102.556 166.408 102.595 166.211 102.686L171.131 99.8491C171.329 99.7507 171.55 99.7062 171.771 99.7203C171.992 99.7344 172.205 99.8065 172.389 99.9293L184.053 106.67C184.517 106.972 184.908 107.375 185.196 107.849C185.484 108.322 185.662 108.855 185.717 109.406L186.794 133.617Z" fill="#1A2509"/>
<path d="M167.443 102.786L179.113 109.521C179.576 109.825 179.966 110.228 180.254 110.701C180.542 111.174 180.72 111.706 180.776 112.257L181.848 136.473C181.893 137.475 181.222 137.886 180.345 137.385L163.736 127.793C163.287 127.506 162.927 127.1 162.695 126.621C162.464 126.141 162.369 125.607 162.423 125.077L165.594 103.683C165.598 103.47 165.661 103.262 165.776 103.083C165.89 102.904 166.052 102.76 166.244 102.667C166.435 102.574 166.648 102.536 166.86 102.557C167.072 102.578 167.274 102.657 167.443 102.786Z" fill="#1A2509"/>
<path d="M185.206 107.858L180.265 110.709C179.981 110.227 179.586 109.82 179.113 109.521L167.444 102.786C167.264 102.664 167.056 102.591 166.84 102.574C166.624 102.556 166.408 102.595 166.211 102.686L171.131 99.8491C171.329 99.7507 171.55 99.7062 171.771 99.7203C171.992 99.7344 172.205 99.8065 172.389 99.9293L184.053 106.67C184.528 106.966 184.923 107.374 185.206 107.858Z" fill="#5C5C5C"/>
<path d="M183.166 104.335V98.3208C183.166 93.9809 180.4 88.8692 176.983 86.8996C175.42 85.9926 173.977 85.8973 172.905 86.5087L169.137 88.7038L170.805 91.9061V97.2233C170.834 97.7721 170.993 98.3062 171.268 98.7818C171.543 99.2574 171.927 99.6611 172.388 99.9596L176.146 102.135L178.977 107.552L182.7 105.382C182.865 105.266 182.996 105.108 183.078 104.923C183.16 104.738 183.191 104.535 183.166 104.335Z" fill="#1A2509"/>
<path d="M176.983 95.4691L181.828 92.6726C180.696 90.202 178.952 88.022 176.983 86.8894C175.42 85.9823 173.977 85.8871 172.905 86.4985L169.137 88.7035L170.805 91.9059V92.9483L176.983 95.4691Z" fill="#5C5C5C"/>
<path d="M179.458 106.494V100.481C179.458 96.1456 176.693 91.0339 173.276 89.0643C169.858 87.0948 167.098 89.0092 167.098 93.3442V99.358C167.128 99.907 167.288 100.441 167.563 100.917C167.838 101.394 168.221 101.798 168.681 102.099L177.87 107.406C178.752 107.908 179.458 107.502 179.458 106.494Z" fill="#1A2509"/>
<path d="M167.794 107.913C166.36 113.255 165.672 118.77 165.75 124.3C165.79 124.867 165.944 125.42 166.203 125.926C166.461 126.433 166.818 126.882 167.253 127.247C170.138 129.382 173.258 131.18 176.553 132.604C176.741 132.708 176.954 132.76 177.168 132.753C177.383 132.746 177.592 132.682 177.774 132.567C177.955 132.451 178.102 132.289 178.199 132.098C178.297 131.906 178.341 131.691 178.326 131.477C178.657 125.558 178.675 119.627 178.381 113.706C178.245 112.561 177.674 111.512 176.788 110.774C174.674 109.229 172.399 107.915 170.004 106.855C169.792 106.755 169.56 106.703 169.326 106.704C169.091 106.704 168.859 106.757 168.648 106.858C168.436 106.96 168.25 107.107 168.102 107.289C167.954 107.472 167.849 107.685 167.794 107.913Z" fill="#A9A9A9"/>
<path opacity="0.15" d="M178.181 132.033C178.257 131.857 178.301 131.668 178.311 131.477C178.641 125.558 178.66 119.626 178.366 113.706C178.309 113.141 178.139 112.594 177.865 112.097C177.219 111.18 176.993 118.928 176.998 123.654C177.003 128.379 177.058 133.055 177.835 132.509C177.866 132.487 177.894 132.461 177.92 132.434C178.021 132.31 178.108 132.175 178.181 132.033Z" fill="#1A2509"/>
<g opacity="0.15">
<path d="M166.848 123.899L167.223 124.14C167.459 124.305 167.8 124.516 168.226 124.776C169.027 125.278 170.104 125.984 171.232 126.611C172.359 127.237 173.466 127.833 174.323 128.264C174.754 128.48 175.11 128.67 175.365 128.791L175.761 128.991C175.761 128.991 175.601 128.966 175.325 128.901C175.05 128.836 174.654 128.741 174.193 128.59C173.732 128.44 173.191 128.239 172.635 127.999C172.359 127.869 172.069 127.748 171.788 127.598C171.507 127.448 171.217 127.297 170.931 127.142C170.37 126.811 169.819 126.46 169.328 126.099C168.877 125.773 168.444 125.424 168.03 125.052C167.664 124.731 167.389 124.431 167.188 124.23C166.988 124.03 166.848 123.899 166.848 123.899Z" fill="#1A2509"/>
<path d="M166.848 120.842C166.848 120.842 166.988 120.922 167.223 121.083C167.459 121.243 167.8 121.454 168.226 121.719C169.027 122.246 170.104 122.922 171.232 123.554C172.359 124.185 173.466 124.771 174.323 125.202C174.754 125.418 175.11 125.608 175.365 125.728C175.621 125.849 175.761 125.934 175.761 125.934L175.325 125.839C175.05 125.769 174.654 125.683 174.193 125.528C173.732 125.373 173.191 125.177 172.635 124.937C172.359 124.811 172.069 124.691 171.788 124.536C171.507 124.38 171.217 124.235 170.931 124.08C170.37 123.749 169.819 123.403 169.328 123.042C168.837 122.681 168.391 122.321 168.03 121.995C167.669 121.669 167.389 121.374 167.188 121.173C166.988 120.973 166.848 120.842 166.848 120.842Z" fill="#1A2509"/>
<path d="M167.465 118.312L167.816 118.527C168.031 118.677 168.352 118.868 168.722 119.108C169.469 119.609 170.461 120.2 171.493 120.757C172.525 121.313 173.578 121.819 174.379 122.205L175.346 122.681C175.577 122.796 175.707 122.871 175.707 122.871C175.707 122.871 175.562 122.871 175.306 122.791C175.051 122.711 174.685 122.661 174.254 122.53C173.823 122.4 173.327 122.24 172.801 122.029C172.545 121.919 172.27 121.819 172.004 121.684C171.739 121.548 171.468 121.423 171.203 121.283C170.937 121.142 170.702 120.987 170.431 120.832C170.16 120.676 169.93 120.506 169.705 120.331C169.289 120.032 168.89 119.709 168.512 119.364C168.176 119.063 167.921 118.788 167.74 118.597L167.465 118.312Z" fill="#1A2509"/>
<path d="M167.719 115.455C167.719 115.455 167.849 115.53 168.059 115.666C168.27 115.801 168.561 115.991 168.936 116.222C169.658 116.683 170.62 117.274 171.617 117.795C172.614 118.316 173.646 118.797 174.418 119.168L175.355 119.629C175.58 119.739 175.705 119.814 175.705 119.814L175.315 119.739C175.069 119.684 174.713 119.614 174.312 119.493C173.912 119.373 173.411 119.228 172.905 119.033C172.654 118.932 172.404 118.837 172.128 118.712C171.852 118.587 171.627 118.466 171.346 118.336C171.066 118.206 170.845 118.05 170.595 117.9C170.344 117.75 170.119 117.59 169.893 117.434C169.489 117.147 169.105 116.834 168.741 116.497C168.415 116.207 168.17 115.936 167.999 115.756C167.829 115.575 167.719 115.455 167.719 115.455Z" fill="#1A2509"/>
<path d="M168.156 112.759L168.482 112.954L169.309 113.455C170.118 113.982 170.955 114.467 171.814 114.908C172.756 115.409 173.743 115.805 174.474 116.151C175.206 116.497 175.687 116.757 175.687 116.757C175.24 116.687 174.796 116.593 174.359 116.477C173.388 116.242 172.444 115.906 171.543 115.474C171.298 115.344 171.042 115.214 170.827 115.074C170.611 114.933 170.371 114.783 170.16 114.638C169.779 114.366 169.416 114.07 169.073 113.751C168.745 113.442 168.438 113.111 168.156 112.759Z" fill="#1A2509"/>
<path d="M169.168 110.113C169.168 110.113 169.589 110.353 170.17 110.724C170.751 111.095 171.553 111.571 172.37 111.992C173.186 112.413 174.028 112.813 174.654 113.134C175.281 113.455 175.697 113.69 175.697 113.69C175.304 113.64 174.916 113.563 174.534 113.46C173.687 113.24 172.867 112.927 172.089 112.528C171.879 112.413 171.668 112.297 171.468 112.172C171.267 112.047 171.077 111.917 170.892 111.786C170.563 111.545 170.25 111.282 169.955 111C169.67 110.725 169.407 110.428 169.168 110.113Z" fill="#1A2509"/>
</g>
<path d="M162.838 129.933C159.772 130.484 156.736 132.048 153.724 134.313C153.538 134.436 153.386 134.603 153.28 134.799C153.174 134.996 153.119 135.215 153.119 135.438C153.119 135.661 153.174 135.881 153.28 136.077C153.386 136.273 153.538 136.441 153.724 136.563C157.366 139.235 161.295 141.489 165.439 143.284C166.512 143.695 167.705 143.664 168.756 143.199C171.33 141.887 173.695 140.198 175.77 138.187C175.937 138.026 176.066 137.829 176.147 137.611C176.227 137.393 176.258 137.16 176.237 136.929C176.216 136.698 176.143 136.474 176.024 136.275C175.905 136.075 175.743 135.905 175.55 135.777C172.684 133.658 169.598 131.855 166.346 130.399C165.232 129.962 164.028 129.802 162.838 129.933Z" fill="#A9A9A9"/>
<g opacity="0.2">
<path d="M155.324 135.441L155.825 135.591C156.151 135.702 156.627 135.847 157.178 136.057C158.535 136.57 159.85 137.186 161.111 137.902C162.389 138.603 163.604 139.413 164.744 140.322C165.256 140.737 165.746 141.179 166.212 141.645L164.543 140.608C163.541 139.981 162.209 139.174 160.851 138.408C159.493 137.641 158.115 136.904 157.078 136.353L155.825 135.702C155.515 135.541 155.324 135.441 155.324 135.441Z" fill="#1A2509"/>
<path d="M158.266 133.757C158.266 133.757 158.456 133.807 158.767 133.913C159.077 134.018 159.568 134.163 160.119 134.374C161.476 134.886 162.791 135.503 164.053 136.218C165.317 136.928 166.519 137.745 167.645 138.659C168.158 139.074 168.65 139.516 169.118 139.982L167.445 138.944C166.443 138.318 165.115 137.511 163.752 136.744C162.389 135.977 161.016 135.241 159.979 134.689L158.722 134.018C158.436 133.858 158.266 133.757 158.266 133.757Z" fill="#1A2509"/>
<path d="M160.775 132.329C160.775 132.329 160.971 132.379 161.276 132.484C161.582 132.589 162.083 132.735 162.634 132.945C163.99 133.458 165.305 134.075 166.567 134.789C167.829 135.504 169.031 136.32 170.16 137.23C170.672 137.645 171.162 138.086 171.628 138.553L169.955 137.516C168.952 136.894 167.625 136.082 166.267 135.315C164.909 134.549 163.531 133.812 162.489 133.261L161.231 132.589L160.775 132.329Z" fill="#1A2509"/>
<path d="M163.516 131.161C163.516 131.161 163.691 131.201 164.017 131.296C164.342 131.392 164.753 131.517 165.264 131.712C166.511 132.177 167.718 132.738 168.877 133.391C170.037 134.047 171.14 134.8 172.174 135.641C172.64 136.028 173.087 136.438 173.511 136.869C173.511 136.869 173.351 136.779 173.086 136.609L171.968 135.927C171.051 135.361 169.824 134.624 168.576 133.922C167.329 133.221 166.071 132.539 165.119 132.028L163.972 131.402L163.516 131.161Z" fill="#1A2509"/>
</g>
<path d="M222.875 130.294L202.803 118.702L213.951 112.263L224.809 119.118L222.875 130.294Z" fill="#A9A9A9"/>
<path opacity="0.35" d="M222.875 130.294L202.803 118.702L213.951 112.263L224.809 119.118L222.875 130.294Z" fill="#1A2509"/>
<path d="M214.411 127.538L217.292 121.815L210.438 117.841C208.258 116.583 205.352 116.728 202.166 118.567C195.392 122.481 193.969 130.219 193.969 138.754C193.969 143.224 191.408 148.727 193.813 150.16L193.908 150.215L200.923 154.274L203.964 148.235C209.741 143.83 214.191 135.155 214.411 127.538Z" fill="#1A2509"/>
<path d="M214.411 127.538L217.292 121.815L210.438 117.841C208.258 116.583 205.352 116.728 202.166 118.567C195.392 122.481 193.969 130.219 193.969 138.754C193.969 143.224 191.408 148.727 193.813 150.16L193.908 150.215L200.923 154.274L203.964 148.235C209.741 143.83 214.191 135.155 214.411 127.538Z" fill="#1A2509"/>
<path fill-rule="evenodd" clip-rule="evenodd" d="M200.499 154C206.545 157.028 213.58 152.327 217.499 144.5C217.865 143.77 218.195 143.036 218.487 142.304C214.38 149.342 206.813 152.699 201.076 149.826C197.532 148.051 195.474 144.295 195.165 139.913C194.066 145.968 195.906 151.7 200.499 154Z" fill="#1A2509"/>
<path d="M215.14 125.482C209.094 122.454 201.016 126.345 197.096 134.172C196.155 136.052 195.513 137.999 195.165 139.913C195.474 144.295 197.532 148.051 201.076 149.826C206.813 152.699 214.38 149.342 218.487 142.304C221.325 135.194 220.622 128.227 215.14 125.482Z" fill="#1A2509"/>
<path d="M215.269 121.482C209.223 118.454 201.144 122.345 197.225 130.172C195.603 133.412 194.947 136.819 195.165 139.913C195.513 137.999 196.155 136.052 197.096 134.172C201.016 126.345 209.094 122.454 215.14 125.482C220.622 128.227 221.325 135.194 218.487 142.304C218.708 141.925 218.919 141.536 219.12 141.136C223.039 133.309 221.315 124.51 215.269 121.482Z" fill="#1A2509"/>
<path d="M209.296 127.843C213.605 125.338 217.103 127.949 217.103 133.637C217.103 139.325 213.595 145.96 209.296 148.451C204.998 150.941 201.49 148.345 201.49 142.652C201.49 136.959 204.988 130.334 209.296 127.843Z" fill="#5C5C5C"/>
<path d="M212.813 136.543C212.537 139.375 210.738 142.392 208.804 143.274C208.474 143.463 208.095 143.548 207.717 143.518C207.338 143.489 206.977 143.346 206.68 143.108C205.988 142.532 205.633 141.339 205.788 139.746C206.059 136.914 207.852 133.902 209.796 133.02C210.236 132.795 210.739 132.724 211.224 132.82C212.347 133.09 213.008 134.484 212.813 136.543Z" fill="#EDEDED"/>
<path d="M212.111 136.183C211.836 139.014 210.037 142.031 208.103 142.913C207.664 143.137 207.163 143.206 206.68 143.108C205.988 142.532 205.633 141.339 205.788 139.746C206.059 136.914 207.852 133.902 209.796 133.02C210.236 132.795 210.739 132.724 211.224 132.82C211.906 133.406 212.266 134.599 212.111 136.183Z" fill="#DADADA"/>
<path d="M221.561 131.061C221.561 138.423 217.478 146.937 212.007 151.648C215.799 147.355 218.472 142.19 219.788 136.614C220.825 131.692 220.434 124.631 216.215 122.847C211.997 121.063 206.43 124.786 204.656 126.515C206 125.013 207.564 123.723 209.296 122.692C216.07 118.773 221.561 122.531 221.561 131.061Z" fill="#5C5C5C"/>
<path d="M184.484 123.223L184.229 123.368L184.484 123.223Z" fill="#A9A9A9"/>
<path d="M215.403 105.412C215.403 98.361 202.581 87.7818 193.016 92.4826C193.016 92.4826 174.698 101.909 170.384 107.622C163.951 116.142 158.219 131.176 156.655 138.523C156.37 139.851 160.954 137.521 162.528 137.145C162.718 137.112 162.914 137.128 163.098 137.191C163.281 137.254 163.445 137.362 163.575 137.506L163.54 164.568L193.126 147.529C193.126 146.737 193.168 145.946 193.252 145.158C194.158 135.772 201.038 124.882 208.413 120.627C216.43 116.002 222.908 120.321 222.908 130.279C224.246 129.658 224.913 129.026 225.243 127.368C225.574 125.709 225.579 123.028 225.579 118.322C225.579 112.904 222.598 107.216 215.403 105.412ZM207.932 106.104L194.529 113.847H194.504L194.349 113.937C193.041 114.694 192.941 113.105 192.941 111.737C192.941 108.274 192.941 104.585 192.941 100.491C192.866 98.326 193.442 96.4015 195.186 95.9204C198.984 94.858 201.779 94.8279 206.184 98.331C209.13 100.731 209.936 104.931 207.932 106.104ZM163.59 131.662C164.286 125.869 168.861 117.57 170.259 114.724C173.44 108.234 179.779 104.62 181.317 103.698C185.17 101.363 187.179 100.23 188.537 99.4986C190.23 98.5866 190.837 98.9975 190.887 99.5538C190.887 99.8144 190.927 100.135 190.927 100.511V113.962C190.983 114.569 190.858 115.178 190.567 115.714C190.277 116.249 189.833 116.686 189.293 116.969C189.293 116.969 163.65 131.652 163.575 131.682L163.59 131.662Z" fill="#E5D973"/>
<path opacity="0.5" d="M192.902 118.271C193.301 118.877 193.566 119.56 193.679 120.276C193.679 120.276 207.257 111.756 211.326 109.752C213.43 108.695 215.855 108.469 218.118 109.119C220.382 109.769 222.318 111.248 223.541 113.26C223.541 113.26 222.314 109.687 218.861 108.088C214.853 106.229 212.623 107.386 205.033 111.376C197.442 115.365 192.902 118.271 192.902 118.271Z" fill="white"/>
<path opacity="0.5" d="M166.506 132.965L187.735 120.833C188.014 121.041 188.235 121.317 188.378 121.634C188.522 121.951 188.583 122.3 188.557 122.647L166.506 132.965Z" fill="white"/>
<path d="M184.143 128.69C184.118 128.705 184.09 128.713 184.06 128.713C184.031 128.714 184.003 128.706 183.977 128.692C183.952 128.678 183.93 128.657 183.916 128.632C183.901 128.607 183.893 128.578 183.893 128.549V127.793C183.893 127.202 184.779 126.209 185.867 125.583L187.475 124.651C188.567 124.025 189.454 123.99 189.454 124.581V125.222C189.453 125.354 189.418 125.482 189.352 125.596C189.286 125.709 189.192 125.803 189.078 125.869L184.143 128.69Z" fill="#1A2509"/>
<path opacity="0.15" d="M167.685 157.226C166.482 157.867 166.237 155.286 165.55 150.26C164.864 145.233 164.929 136.814 164.929 136.814C164.102 140.583 164.428 149.704 164.929 155.547C165.43 161.39 166.512 160.849 167.685 159.977L188.663 146.872L167.685 157.226Z" fill="#1A2509"/>
<path opacity="0.15" d="M189.5 119.735C189.5 119.735 191.058 121.564 191.058 125.528C191.058 130.294 191.108 146.01 191.108 146.01C191.108 146.01 191.99 129.016 192.526 125.062C193.062 121.108 191.058 118.878 191.058 118.878L189.5 119.735Z" fill="#1A2509"/>
<path d="M209.06 99.629C208.178 98.245 207.026 97.0526 205.674 96.1228C204.322 95.1929 202.796 94.5447 201.188 94.2166C195.887 93.1742 191.824 95.6198 189.264 96.9779C189.093 97.0681 188.918 97.1583 188.763 97.2636C186.698 98.4914 180.28 102.135 177.239 104.49C174.322 106.75 170.625 111.246 169.031 114.483C165.404 121.865 163.259 127.939 162.778 130.46C162.648 131.151 161.982 133.597 162.959 133.211C163.124 133.146 163.901 132.77 164.081 132.67C168.089 130.475 173.656 127.323 173.656 127.323C173.656 127.323 184.213 121.053 188.752 118.432C189.519 117.991 189.73 117.856 190.656 117.274C191.583 116.693 203.919 109.692 207.973 107.337C210.518 105.868 210.703 102.506 209.06 99.629ZM190.897 113.411C190.948 114.013 190.821 114.618 190.53 115.148C190.24 115.679 189.799 116.111 189.264 116.392L189.188 116.438L189.088 116.498C187.61 117.41 184.789 119.049 182.575 120.261L182.52 120.291L182.399 120.362L182.234 120.457C174.593 124.626 164.261 130.821 164.196 130.851C165.72 125.43 167.755 120.166 170.274 115.13C173.456 108.64 179.794 104.605 181.342 103.678C185.195 101.343 187.204 100.21 188.562 99.4786C190.256 98.5665 190.862 98.9775 190.912 99.5338C190.912 99.7944 190.952 100.115 190.952 100.491L190.897 113.411ZM207.246 106.009L194.499 113.371H194.474L194.319 113.461C193.011 114.217 192.911 112.629 192.911 111.261C192.911 107.798 192.911 104.585 192.911 100.491C192.836 98.326 193.412 96.4016 195.156 95.9205C198.954 94.858 201.75 94.828 206.154 98.331C209.13 100.732 209.295 104.836 207.261 106.009H207.246Z" fill="#1A2509"/>
<path d="M182.519 120.276L182.615 120.226C182.514 120.306 182.499 120.311 182.519 120.276Z" fill="#1A2509"/>
<path d="M184.173 119.344L183.617 119.665L183.858 119.525L184.173 119.344Z" fill="#1A2509"/>
<path d="M182.545 120.276L182.731 120.166L182.796 120.131L182.535 120.281L182.545 120.276Z" fill="#1A2509"/>
<path d="M183.201 119.905L183.371 119.805L183.506 119.73L182.98 120.031L182.76 120.161L182.93 120.061L182.98 120.031L183.201 119.905Z" fill="#1A2509"/>
<path opacity="0.5" d="M190.898 113.41C190.949 114.013 190.822 114.617 190.531 115.148C190.241 115.678 189.8 116.111 189.264 116.392L189.189 116.437L189.089 116.497C187.611 117.409 184.79 119.048 182.576 120.261L182.52 120.291L182.4 120.361L182.235 120.456C174.594 124.626 164.262 130.82 164.197 130.85C165.721 125.429 167.756 120.165 170.275 115.129C173.457 108.639 179.795 104.605 181.343 103.678C185.196 101.343 187.205 100.21 188.563 99.4783C190.257 98.5662 190.863 98.9772 190.913 99.5334C190.913 99.794 190.953 100.115 190.953 100.491L190.898 113.41Z" fill="#1A2509"/>
<path opacity="0.5" d="M207.261 106.009L194.515 113.37H194.49L194.334 113.461C193.027 114.217 192.926 112.629 192.926 111.261C192.926 107.798 192.926 104.585 192.926 100.491C192.851 98.3259 193.427 96.4015 195.171 95.9204C198.969 94.858 201.765 94.8279 206.169 98.3309C209.13 100.731 209.295 104.836 207.261 106.009Z" fill="#1A2509"/>
<path d="M211.736 97.8898C206.29 90.7284 198.478 82.2389 176.733 71.3289C154.988 60.4189 151.075 59.3564 139.395 64.9292C133.107 67.7156 119.945 73.8647 115.941 78.1596C116.449 78.0659 116.968 78.0506 117.48 78.1144C125.04 80.1692 163.671 103.843 170.044 108.093C170.155 107.918 170.277 107.751 170.41 107.592C174.724 101.879 193.042 92.4523 193.042 92.4523C198.584 89.686 206.315 92.0664 211.786 97.8948L211.736 97.8898Z" fill="#A9A9A9"/>
<path opacity="0.5" d="M211.736 97.8898C206.29 90.7284 198.478 82.2389 176.733 71.3289C154.988 60.4189 151.075 59.3564 139.395 64.9292C133.107 67.7156 119.945 73.8647 115.941 78.1596C116.449 78.0659 116.968 78.0506 117.48 78.1144C125.04 80.1692 163.671 103.843 170.044 108.093C170.155 107.918 170.277 107.751 170.41 107.592C174.724 101.879 193.042 92.4523 193.042 92.4523C198.584 89.686 206.315 92.0664 211.786 97.8948L211.736 97.8898Z" fill="#E5D973"/>
<path d="M128.148 115.084C113.457 106.51 97.9246 101.478 97.8945 101.473C98.3154 103.062 98.581 106.329 101.206 109.792C103.211 112.473 105.771 115.39 108.887 117.48C116.243 122.617 123.673 126.135 126.198 127.643C138.85 134.504 154.758 136.734 156.887 134.208C156.887 134.208 139.842 121.905 128.148 115.084Z" fill="#5C5C5C"/>
<path d="M156.887 134.208C156.286 133.832 136.285 121.499 127.04 115.941C118.242 110.649 100.099 102.47 97.8945 101.473C108.42 104.958 118.558 109.52 128.148 115.084C138.043 120.972 147.635 127.354 156.887 134.208Z" fill="#1A2509"/>
<path d="M163.536 164.578L143.469 152.986L154.617 146.546L163.536 151.718V164.578Z" fill="#A9A9A9"/>
<path opacity="0.35" d="M163.536 164.578L143.469 152.986L154.617 146.546L163.536 151.718V164.578Z" fill="#1A2509"/>
<path d="M155.273 161.696L158.159 155.973L151.314 151.999C149.13 150.746 146.229 150.886 143.037 152.731C136.263 156.645 130.771 166.733 130.771 175.282C130.771 179.753 132.275 182.905 134.685 184.333L134.78 184.388L141.794 188.447L144.836 182.434C150.608 177.999 155.052 169.309 155.273 161.696Z" fill="#1A2509"/>
<path d="M155.273 161.696L158.159 155.973L151.314 151.999C149.13 150.746 146.229 150.886 143.037 152.731C136.263 156.645 130.771 166.733 130.771 175.282C130.771 179.753 132.275 182.905 134.685 184.333L134.78 184.388L141.794 188.447L144.836 182.434C150.608 177.999 155.052 169.309 155.273 161.696Z" fill="#1A2509"/>
<path d="M162.423 165.219C162.423 172.576 158.339 181.095 152.873 185.806C152.864 185.804 152.856 185.804 152.848 185.806C152.012 186.531 151.111 187.176 150.157 187.736C143.383 191.65 137.886 187.901 137.896 179.366C137.896 172.922 141.028 165.58 145.482 160.694L145.517 160.654C146.862 159.152 148.426 157.863 150.157 156.83C156.931 152.941 162.423 156.684 162.423 165.219Z" fill="#1A2509"/>
<path d="M150.158 162.002C154.472 159.496 157.964 162.107 157.964 167.795C157.964 173.483 154.457 180.119 150.158 182.604C145.859 185.09 142.352 182.499 142.352 176.811C142.352 171.123 145.849 164.493 150.158 162.002Z" fill="#5C5C5C"/>
<path d="M153.685 170.732C153.389 173.558 151.566 176.56 149.622 177.427C149.29 177.613 148.91 177.695 148.532 177.663C148.153 177.631 147.793 177.486 147.497 177.247C146.816 176.66 146.465 175.467 146.63 173.879C146.931 171.047 148.745 168.045 150.694 167.178C151.135 166.957 151.639 166.892 152.122 166.993C153.249 167.269 153.901 168.672 153.685 170.732Z" fill="#EDEDED"/>
<path d="M152.989 170.391C152.693 173.218 150.874 176.22 148.925 177.087C148.483 177.306 147.981 177.371 147.497 177.272C146.816 176.686 146.465 175.493 146.63 173.904C146.931 171.073 148.745 168.071 150.694 167.204C151.135 166.983 151.639 166.917 152.122 167.018C152.818 167.585 153.154 168.783 152.989 170.391Z" fill="#DADADA"/>
<path d="M162.423 165.219C162.423 172.576 158.339 181.095 152.873 185.806C156.11 182.298 159.467 176.38 160.649 170.747C161.686 165.83 161.3 158.769 157.077 156.985C152.853 155.201 147.281 158.96 145.518 160.674C146.862 159.172 148.427 157.883 150.157 156.85C156.931 152.941 162.423 156.684 162.423 165.219Z" fill="#5C5C5C"/>
<path d="M162.678 134.474C162.678 134.474 158.93 134.744 157.497 135.215C156.214 135.636 142.641 135.215 129.213 129.322C121.196 125.814 115.069 122.902 108.234 117.024C99.3207 109.366 98.1383 104.234 97.2414 102.16C93.5537 104.781 88.5733 108.399 85.7174 110.609C79.1437 116.077 71.142 124.14 67.9754 133.096C67.76 133.702 67.5646 134.313 67.3992 134.925C62.7145 151.999 66.7278 158.288 70.7462 163.49C72.4548 165.71 77.1996 170.03 83.117 173.558C87.9754 176.412 92.9942 178.984 98.1483 181.261C101.178 182.602 104.324 183.661 107.548 184.423C123.812 188.012 134.725 181.176 134.725 181.176C134.641 180.272 134.651 179.362 134.755 178.46C134.893 177.249 135.109 176.049 135.401 174.866C136.157 171.809 137.311 168.864 138.833 166.106C141.153 161.882 144.254 158.178 147.707 155.783C148.157 155.462 148.618 155.171 149.079 154.906C156.545 150.591 162.698 154.064 163.489 162.628C163.55 163.25 163.54 163.886 163.54 164.558L163.925 156.685L163.575 135.692C163.575 135.692 162.407 135.486 162.678 134.474Z" fill="#E5D973"/>
<path opacity="0.2" d="M97.2829 108.344C107.214 123.413 126.93 134.133 149.296 138.412C150.654 138.673 151.195 139.881 150.038 140.638C147.979 141.981 144.501 142.702 140.097 141.855C119.965 135.962 106.026 128.324 96.5413 117.394C95.6345 116.347 94.4019 114.463 94.0361 113.124C93.5351 111.245 93.6052 109.426 94.2766 108.043C94.8979 106.785 96.5213 107.186 97.2829 108.344Z" fill="#1A2509"/>
<path d="M87.7574 152.615C90.0372 153.813 94.1959 149.789 96.2752 148.175C98.3545 146.561 93.5846 142.292 90.9391 142.923C87.2314 143.83 85.7433 151.553 87.7574 152.615Z" fill="#5C5C5C"/>
<path d="M98.1442 181.281C100.069 182.137 102.043 182.877 104.056 183.496C101.626 182.529 103.676 177.718 101.852 175.929C99.9429 174.059 93.8352 171.213 86.4398 166.943C79.0444 162.673 74.059 158.043 72.9116 159.476C70.9074 162.047 69.2991 161.571 69.2891 161.566C69.76 162.242 70.241 162.884 70.722 163.51C72.4306 165.73 77.1755 170.05 83.0928 173.578C87.9578 176.433 92.9832 179.005 98.1442 181.281Z" fill="#5C5C5C"/>
<g opacity="0.2">
<path d="M95.5131 103.407C91.3845 107.612 87.6317 112.227 84.8158 117.394C81.9673 122.533 80.0393 128.13 79.119 133.932C78.6162 136.814 78.3814 139.737 78.4175 142.662C78.4371 145.566 79.0049 148.439 80.091 151.132C80.216 151.468 80.3651 151.794 80.5369 152.109C80.7073 152.43 80.8626 152.75 81.038 153.061C81.405 153.677 81.8117 154.267 82.2555 154.83C82.6938 155.402 83.1674 155.946 83.6734 156.459C84.1974 156.948 84.7477 157.408 85.3219 157.837C86.4967 158.684 87.7403 159.432 89.0396 160.072C90.3423 160.735 91.6804 161.326 93.048 161.841C93.7194 162.117 94.4158 162.312 95.1073 162.533C95.453 162.633 95.8037 162.713 96.1544 162.803L96.6805 162.934L97.2116 163.024C98.6273 163.298 100.07 163.407 101.511 163.35C104.413 163.193 107.27 162.569 109.973 161.5C111.336 160.999 112.684 160.408 114.047 159.822L118.125 158.098C120.851 156.955 123.607 155.873 126.402 154.9C129.198 153.928 132.009 153.016 134.83 152.149C137.651 151.282 140.477 150.47 143.192 149.338C145.927 148.263 148.511 146.841 150.883 145.108C153.264 143.359 155.233 141.112 156.655 138.523C155.319 141.184 153.403 143.511 151.049 145.333C148.695 147.144 146.118 148.647 143.383 149.804C140.647 150.932 137.856 151.921 135.02 152.765C132.215 153.678 129.424 154.615 126.663 155.637C123.902 156.659 121.152 157.767 118.461 158.91L114.397 160.654C113.05 161.24 111.687 161.836 110.294 162.367C107.502 163.487 104.548 164.147 101.546 164.322C100.035 164.387 98.5227 164.282 97.0363 164.006L96.4801 163.911L95.929 163.776C95.5632 163.685 95.1975 163.605 94.8317 163.505C94.1152 163.275 93.3887 163.074 92.6972 162.793C91.3006 162.258 89.9356 161.644 88.6087 160.954C87.2631 160.286 85.9774 159.503 84.7657 158.614C84.159 158.159 83.5785 157.671 83.0271 157.15C82.4918 156.612 81.9899 156.041 81.524 155.442C81.0594 154.842 80.6327 154.215 80.2463 153.562C80.0609 153.232 79.8956 152.891 79.7453 152.56C79.566 152.226 79.4087 151.882 79.2743 151.528C78.1621 148.725 77.5859 145.738 77.5757 142.722C77.5384 139.732 77.802 136.745 78.3624 133.807C79.3764 127.942 81.4114 122.3 84.3749 117.139C87.4098 112.051 91.161 107.426 95.5131 103.407Z" fill="#1A2509"/>
</g>
<path opacity="0.5" d="M117.099 124.741C117.099 124.741 102.068 116.337 96.5116 103.077C96.5116 103.077 90.0782 109.136 86.0849 117.164C83.3682 122.643 81.3966 128.461 80.2227 134.464C80.2227 134.464 83.5496 121.564 89.2164 113.631C94.5325 106.184 95.8252 104.355 98.8765 109.231C101.211 112.974 108.767 122.025 117.099 124.741Z" fill="white"/>
<path opacity="0.5" d="M140.427 149.393C136.699 150.31 129.659 152.059 123.812 154.405C117.965 156.75 110.584 161.325 102.953 162.167C95.3226 163.009 87.6816 158.439 87.6816 158.439C87.6816 158.439 95.5079 162.047 102.743 161.055C109.978 160.063 116.953 155.652 124.153 153.097C131.353 150.541 140.427 149.393 140.427 149.393Z" fill="white"/>
<path d="M130.217 173.989C129.505 173.889 127.712 174.365 124.705 175.232C121.699 176.099 120.962 176.179 119.845 176.951C118.898 177.603 116.373 179.662 115.155 180.289C113.221 181.291 115.155 182.008 120.562 182.013C125.968 182.018 127.797 180.399 129.039 178.74C130.282 177.081 131.84 174.215 130.217 173.989Z" fill="#5C5C5C"/>
<path d="M66.7928 144.607C66.6318 145.587 66.5314 146.576 66.4922 147.569C66.4595 149.526 66.8367 151.469 67.5995 153.272C67.835 153.823 68.2458 154.45 68.8471 154.395C69.0826 154.37 68.5866 146.161 68.4713 145.374C68.3561 144.587 68.2659 143.901 68.1607 143.164C68.1206 142.893 68.0204 142.557 67.7498 142.532C67.2989 142.472 66.9932 143.475 66.7928 144.607Z" fill="#5C5C5C"/>
<path d="M75.367 137.37C75.9081 135.075 75.868 131.261 75.9683 128.916C76.0009 126.702 76.2577 124.498 76.7349 122.336C77.0204 120.872 77.2359 119.67 76.785 119.148C73.0622 123.318 69.7703 128.074 67.9716 133.095C67.7562 133.702 67.5607 134.313 67.3954 134.925C67.2301 135.536 67.0848 136.087 66.9395 136.654C67.2852 138.408 68.8434 140.818 70.8977 141.034C73.2726 141.274 74.8209 139.67 75.367 137.37Z" fill="#5C5C5C"/>
<path d="M74.4595 120.276C74.8552 119.952 75.363 119.797 75.8724 119.845C76.3735 119.915 76.158 120.677 76.0478 120.998C75.8524 121.569 75.662 122.145 75.4666 122.721C75.3213 123.142 75.2361 123.678 74.6799 123.723C73.9935 123.753 73.6328 122.932 73.5125 122.375C73.4632 121.972 73.5254 121.563 73.6924 121.193C73.8594 120.823 74.1247 120.506 74.4595 120.276Z" fill="#A9A9A9"/>
<path opacity="0.65" d="M74.4595 120.276C74.8552 119.952 75.363 119.797 75.8724 119.845C76.3735 119.915 76.158 120.677 76.0478 120.998C75.8524 121.569 75.662 122.145 75.4666 122.721C75.3213 123.142 75.2361 123.678 74.6799 123.723C73.9935 123.753 73.6328 122.932 73.5125 122.375C73.4632 121.972 73.5254 121.563 73.6924 121.193C73.8594 120.823 74.1247 120.506 74.4595 120.276Z" fill="white"/>
<path d="M69.7246 139.495C70.1972 139.821 70.7731 139.961 71.3424 139.889C71.9117 139.817 72.4345 139.537 72.811 139.104C73.423 138.464 73.8716 137.685 74.1187 136.834C75.3363 133.211 74.755 129.262 74.1187 125.493C74.0856 125.053 73.9235 124.633 73.6528 124.285C72.7308 123.318 71.1175 125.057 70.5313 125.673C69.5821 126.674 68.8201 127.837 68.2816 129.106C67.545 130.845 66.8536 133.381 67.2394 135.286C67.555 136.774 68.3868 138.653 69.7246 139.495Z" fill="#A9A9A9"/>
<path opacity="0.65" d="M69.7246 139.495C70.1972 139.821 70.7731 139.961 71.3424 139.889C71.9117 139.817 72.4345 139.537 72.811 139.104C73.423 138.464 73.8716 137.685 74.1187 136.834C75.3363 133.211 74.755 129.262 74.1187 125.493C74.0856 125.053 73.9235 124.633 73.6528 124.285C72.7308 123.318 71.1175 125.057 70.5313 125.673C69.5821 126.674 68.8201 127.837 68.2816 129.106C67.545 130.845 66.8536 133.381 67.2394 135.286C67.555 136.774 68.3868 138.653 69.7246 139.495Z" fill="white"/>
<path opacity="0.45" d="M70.8721 127.067C70.1726 127.914 69.7655 128.964 69.7113 130.061C69.6571 131.159 69.9588 132.244 70.5715 133.156C70.6825 133.348 70.8327 133.515 71.0122 133.645C71.1917 133.775 71.3967 133.866 71.6137 133.912C71.8437 133.923 72.072 133.869 72.2729 133.756C72.4738 133.644 72.6394 133.477 72.7511 133.276C72.9707 132.871 73.1006 132.423 73.1319 131.963C73.2772 130.556 73.3073 129.14 73.222 127.728C73.1519 125.989 71.8893 125.894 70.8721 127.067Z" fill="white"/>
<path d="M118.245 160.839C120.75 158.719 124.618 156.915 131.077 156.279C136.824 155.717 141.944 153.076 142.1 155.948C142.255 158.82 137.696 167.444 129.333 170.341C122.123 172.847 117.534 170.887 115.995 168.462C114.457 166.036 115.775 162.959 118.245 160.839Z" fill="#5C5C5C"/>
<path d="M138.108 159.576C139.19 159.871 139.926 159.375 140.377 158.413C140.698 157.717 140.973 156.69 140.097 156.319C138.879 155.818 137.231 156.219 136.088 156.77C133.819 157.862 137.045 159.29 138.108 159.576Z" fill="#A9A9A9"/>
<path opacity="0.65" d="M138.108 159.576C139.19 159.871 139.926 159.375 140.377 158.413C140.698 157.717 140.973 156.69 140.097 156.319C138.879 155.818 137.231 156.219 136.088 156.77C133.819 157.862 137.045 159.29 138.108 159.576Z" fill="white"/>
<path d="M135.281 163.49C136.008 162.182 136.403 160.684 135.386 159.631C134.369 158.579 132.38 158.243 130.972 158.128C126.641 157.738 122.331 159.077 118.982 161.851C118.198 162.461 117.541 163.219 117.048 164.081C116.803 164.512 116.647 164.988 116.586 165.48C116.526 165.972 116.564 166.471 116.697 166.948C118.125 171.343 124.919 170.666 128.221 169.419C130.378 168.601 132.298 167.264 133.813 165.525C134.372 164.9 134.864 164.218 135.281 163.49Z" fill="#A9A9A9"/>
<path opacity="0.65" d="M135.281 163.49C136.008 162.182 136.403 160.684 135.386 159.631C134.369 158.579 132.38 158.243 130.972 158.128C126.641 157.738 122.331 159.077 118.982 161.851C118.198 162.461 117.541 163.219 117.048 164.081C116.803 164.512 116.647 164.988 116.586 165.48C116.526 165.972 116.564 166.471 116.697 166.948C118.125 171.343 124.919 170.666 128.221 169.419C130.378 168.601 132.298 167.264 133.813 165.525C134.372 164.9 134.864 164.218 135.281 163.49Z" fill="white"/>
<path opacity="0.45" d="M127.56 159.125C126.617 159.311 125.696 159.592 124.809 159.962C123.807 160.373 122.805 161.2 122.905 162.267C123.116 164.563 127.455 165.64 129.314 165.555C130.273 165.53 131.21 165.256 132.03 164.758C132.851 164.261 133.528 163.558 133.993 162.718C136.063 158.539 129.7 158.769 127.56 159.125Z" fill="white"/>
<path d="M117.455 78.1294C108.697 85.6466 103.992 91.1593 97.4382 100.34C96.1255 102.611 100.109 111.245 107.985 117.625C129.3 134.905 155.895 138.247 158.591 135.461C162.383 121.98 166.312 114.002 170.029 108.108C163.646 103.858 125.016 80.1841 117.455 78.1294ZM156.957 133.952C156.914 134.107 156.819 134.242 156.687 134.334C156.555 134.425 156.396 134.468 156.236 134.454C149.547 134.454 129.179 131.722 109.869 117.009C99.7079 109.276 99.2069 101.543 99.0365 100.937C104.187 93.0135 108.717 88.1373 116.428 81.1363C116.813 80.7882 117.292 80.5591 117.804 80.4764C118.317 80.3937 118.843 80.461 119.319 80.6702C129.896 85.2908 152.889 98.4911 165.144 107.336C165.682 107.723 166.059 108.294 166.204 108.941C166.349 109.587 166.252 110.265 165.931 110.844C161.161 119.459 159.417 125.368 156.957 133.952Z" fill="#1A2509"/>
<path opacity="0.5" d="M156.956 133.952C156.913 134.107 156.818 134.242 156.686 134.333C156.554 134.425 156.394 134.467 156.234 134.453C149.545 134.453 129.178 131.722 109.868 117.008C99.7066 109.276 99.2055 101.543 99.0352 100.937C104.186 93.0134 108.715 88.1372 116.426 81.1362C116.812 80.7881 117.29 80.5589 117.803 80.4762C118.316 80.3936 118.842 80.4609 119.317 80.6701C129.894 85.2907 152.887 98.491 165.143 107.336C165.681 107.723 166.058 108.294 166.203 108.941C166.348 109.587 166.251 110.265 165.93 110.844C161.16 119.459 159.416 125.368 156.956 133.952Z" fill="#1A2509"/>
<path d="M170.45 136.057C169.518 140.482 164.622 141.414 160.955 141.304C159.011 141.249 157.412 140.893 156.946 140.613C155.528 139.796 156.185 138.107 156.946 137.104C158.229 135.441 163.996 132.093 167.614 131.988C169.708 131.923 171.096 132.955 170.45 136.057Z" fill="#A9A9A9"/>
<path opacity="0.3" d="M170.45 136.057C169.518 140.482 164.622 141.414 160.955 141.304C159.011 141.249 157.412 140.893 156.946 140.613C155.528 139.796 156.185 138.107 156.946 137.104C158.229 135.441 163.996 132.093 167.614 131.988C169.708 131.923 171.096 132.955 170.45 136.057Z" fill="#1A2509"/>
<path d="M170.45 136.057C169.518 140.482 164.622 141.414 160.955 141.304C159.011 141.249 157.412 140.893 156.946 140.613C155.528 139.796 156.185 138.107 156.946 137.104C156.23 138.453 160.008 139.289 163.375 138.082C166.742 136.874 169.247 134.268 167.614 131.988C169.708 131.923 171.096 132.955 170.45 136.057Z" fill="#A9A9A9"/>
<path opacity="0.35" d="M170.45 136.057C169.518 140.482 164.622 141.414 160.955 141.304C159.011 141.249 157.412 140.893 156.946 140.613C155.528 139.796 156.185 138.107 156.946 137.104C156.23 138.453 160.008 139.289 163.375 138.082C166.742 136.874 169.247 134.268 167.614 131.988C169.708 131.923 171.096 132.955 170.45 136.057Z" fill="#1A2509"/>
<path d="M170.45 136.057C169.518 140.483 164.623 141.415 160.955 141.304C164.608 141.199 167.514 139.094 168.616 136.794C169.718 134.494 168.877 132.284 167.614 131.993C169.708 131.923 171.096 132.955 170.45 136.057Z" fill="#1A2509"/>
<path d="M36.9825 73.8796C36.8258 73.7775 36.65 73.708 36.4658 73.6753C36.2816 73.6425 36.0927 73.6473 35.9103 73.6892C35.9103 73.6892 35.6648 73.8245 35.5195 73.9247C35.0832 74.249 34.7614 74.7038 34.6008 75.2231C34.4401 75.7425 34.4488 76.2996 34.6257 76.8136C34.8026 77.3277 35.1385 77.7721 35.5847 78.0826C36.031 78.393 36.5644 78.5533 37.1078 78.5403C37.4817 78.5327 37.8488 78.4384 38.18 78.2647L38.5258 78.0642C38.6532 77.9205 38.7493 77.7518 38.808 77.5689C38.8666 77.386 38.8866 77.1928 38.8665 77.0018C38.8161 76.3709 38.6197 75.7603 38.2927 75.2184C37.9658 74.6766 37.5172 74.2182 36.9825 73.8796Z" fill="#A9A9A9"/>
<path d="M91.3711 149.077C90.7248 149.968 89.7277 150.404 89.2868 150.079C89.06 149.93 88.8656 149.737 88.7156 149.511C88.5656 149.285 88.4629 149.031 88.4139 148.764C88.3649 148.498 88.3705 148.224 88.4304 147.959C88.4903 147.695 88.6032 147.445 88.7623 147.226C88.9215 147.006 89.1235 146.821 89.3563 146.682C89.589 146.543 89.8475 146.452 90.1162 146.416C90.385 146.38 90.6583 146.398 90.9196 146.471C91.181 146.543 91.4249 146.668 91.6367 146.837C92.0125 147.193 92.0225 148.18 91.3711 149.077Z" fill="#1A2509"/>
<path d="M62.6858 191.655C59.7531 191.615 56.8833 190.799 54.3685 189.289C51.267 187.5 49.3581 185.01 48.6917 181.887C47.6595 177.051 49.9242 171.699 52.1739 168.582L52.8153 167.7C56.7885 162.217 58.9781 159.18 58.2015 156.068C57.2745 152.32 44.9338 152.826 31.9718 153.828L28.4645 154.099C20.1071 154.725 7.73634 153.257 6.55889 149.433C6.10795 147.975 7.21525 146.461 9.85575 144.923C20.042 139.054 28.8453 133.978 28.8453 123.042C28.8453 109.852 28.7551 102.816 28.685 97.6843C28.6499 94.8027 28.6198 90.6682 28.6198 88.2627C28.6198 81.4671 35.1935 76.5308 35.4741 76.3253C35.5811 76.2456 35.7154 76.2116 35.8474 76.2309C35.9794 76.2501 36.0984 76.3211 36.1781 76.4281C36.2578 76.5351 36.2918 76.6693 36.2725 76.8014C36.2533 76.9334 36.1824 77.0524 36.0754 77.1322C36.0153 77.1773 29.632 81.9783 29.632 88.2627C29.632 90.6482 29.662 94.7776 29.6971 97.6693C29.7672 102.806 29.8574 109.842 29.8574 123.042C29.8574 134.569 20.3977 140.021 10.3768 145.805C8.87371 146.672 7.17016 147.95 7.53592 149.137C8.36264 151.818 18.8946 153.813 28.4094 153.096L31.9167 152.831C45.4449 151.783 58.0662 151.257 59.1986 155.838C60.0854 159.421 57.8006 162.573 53.652 168.296L53.0107 169.183C50.8812 172.13 48.7318 177.172 49.6938 181.687C50.3 184.523 52.0487 186.794 54.8946 188.432C61.2729 192.116 67.3706 190.763 70.5823 187.786C73.2879 185.28 74.4954 181.271 74.4954 174.756C74.4954 173.754 74.4954 172.686 74.4954 171.609C74.4603 167.289 74.4253 162.824 74.8912 158.895C75.3923 154.525 77.2111 150.982 79.9468 148.912C82.4219 147.043 85.5835 146.406 89.3413 146.997C89.4071 147.008 89.4702 147.031 89.527 147.066C89.5838 147.101 89.6331 147.147 89.6722 147.201C89.7112 147.255 89.7393 147.316 89.7548 147.381C89.7702 147.446 89.7728 147.513 89.7622 147.579C89.7517 147.645 89.7283 147.708 89.6934 147.764C89.6585 147.821 89.6128 147.871 89.5588 147.91C89.5048 147.949 89.4437 147.977 89.3789 147.992C89.314 148.008 89.2468 148.01 89.181 148C85.7038 147.443 82.8027 148.025 80.553 149.729C77.151 152.295 76.1689 156.655 75.8883 159.025C75.4274 162.894 75.4624 167.329 75.4975 171.619C75.4975 172.696 75.4975 173.754 75.4975 174.771C75.4975 181.577 74.1898 185.821 71.2637 188.533C68.8952 190.609 65.8348 191.723 62.6858 191.655Z" fill="#1A2509"/>
<path d="M140.825 53.4025L137.999 48.1104L140.274 41.5453V37.5361L133.314 41.5453V45.5545L136.321 50.7364C136.367 50.818 136.439 50.8816 136.526 50.9168L140.825 53.4025Z" fill="#BCDF81"/>
<path opacity="0.2" d="M140.825 53.4025L137.999 48.1104L140.274 41.5453V37.5361L133.314 41.5453V45.5545L136.321 50.7364C136.367 50.818 136.439 50.8816 136.526 50.9168L140.825 53.4025Z" fill="#1A2509"/>
<path d="M157.444 5.55254C157.405 4.82802 157.196 4.12281 156.834 3.49414C156.472 2.86547 155.967 2.33105 155.36 1.93425L153.661 0.931946C153.014 0.605877 152.299 0.436035 151.574 0.436035C150.849 0.436035 150.135 0.605877 149.487 0.931946L123.433 16.0366C122.825 16.4331 122.319 16.9674 121.956 17.596C121.593 18.2247 121.383 18.93 121.344 19.6549V48.3256C121.383 49.0505 121.593 49.7559 121.956 50.3845C122.319 51.0132 122.825 51.5474 123.433 51.9439L125.132 52.9462C125.778 53.275 126.493 53.4464 127.218 53.4464C127.944 53.4464 128.659 53.275 129.305 52.9462L137.683 48.1051L140.689 53.277C140.732 53.3508 140.795 53.4109 140.87 53.45C140.946 53.4892 141.032 53.5058 141.116 53.4978C141.201 53.4899 141.282 53.4578 141.349 53.4054C141.417 53.3529 141.467 53.2823 141.496 53.2018L144.652 44.0909L155.38 37.8767C155.988 37.4801 156.494 36.9459 156.857 36.3172C157.22 35.6886 157.429 34.9833 157.469 34.2584L157.444 5.55254Z" fill="#BCDF81"/>
<path opacity="0.2" d="M121.344 48.3159C121.383 49.0408 121.593 49.7462 121.956 50.3748C122.319 51.0034 122.825 51.5377 123.433 51.9342L125.132 52.9365C125.72 53.233 126.364 53.4014 127.022 53.4308C127.68 53.4601 128.337 53.3498 128.95 53.1069C127.948 53.4778 127.216 52.9215 127.216 51.7338V23.053C127.242 22.3272 127.452 21.62 127.827 20.9983L121.955 17.5854C121.58 18.2092 121.37 18.9179 121.344 19.6452V48.3159Z" fill="#1A2509"/>
<path opacity="0.5" d="M157.379 4.95596C157.133 4.06892 156.326 3.78828 155.374 4.34455L129.32 19.4191C128.701 19.8002 128.193 20.3378 127.847 20.9777L121.965 17.5899C122.311 16.9531 122.817 16.4176 123.433 16.0364L149.487 0.961795C150.135 0.635674 150.851 0.46582 151.577 0.46582C152.302 0.46582 153.018 0.635674 153.666 0.961795L155.369 1.96409C155.888 2.30228 156.333 2.7415 156.678 3.25553C157.024 3.76955 157.262 4.34787 157.379 4.95596Z" fill="white"/>
<path d="M153.732 13.6812C152.018 17.6903 154.132 23.8645 152.624 28.7908C151.116 33.7171 148.385 35.8821 145.434 35.5012C145.089 29.9886 146.817 24.3456 149.673 19.71C146.952 22.4713 143.3 27.0618 144.081 35.3358C141.837 34.3636 139.782 29.9886 142.177 24.6112C145.464 17.2193 153.732 13.6812 153.732 13.6812Z" fill="white"/>
<path d="M135.709 19.9106L130.498 33.7323L134.972 34.4991L133.579 45.6246L139.006 31.3168L134.541 30.3446L135.709 19.9106Z" fill="white"/>
</g>
<defs>
<clipPath id="clip0_51544_5062">
<rect width="240" height="218" fill="white"/>
</clipPath>
</defs>
</svg>
